Coordinates
version=1
nRows=54
nColumns=12
inDegrees=yes

Units are S.I. units (second, meters, Newtons, ...)
Angles are in degrees

endheader
time	SC_y	SC_z	SC_x	AC_y	AC_z	AC_x	GH_y	GH_z	GH_yy	EL_x	PS_y
       0.0              -25.95         -1.171          37.17          61.27          4.741          10.83         -61.07          13.54          138.1          110.4          113.7
   0.03818              -25.95         -1.168          37.17          61.27          4.738          10.82         -61.05          13.54          138.1          110.4          113.7
   0.07635              -25.95         -1.165          37.18          61.27          4.735          10.82         -61.02          13.55          138.1          110.3          113.7
    0.1145              -25.95         -1.162          37.18          61.27          4.731          10.82         -60.99          13.56          138.1          110.3          113.7
    0.1527              -25.94         -1.159          37.18          61.26          4.728          10.82         -60.96          13.56          138.1          110.3          113.7
    0.1909              -25.94         -1.156          37.18          61.26          4.724          10.82         -60.92          13.57          138.1          110.3          113.7
    0.2291              -25.94         -1.152          37.19          61.26           4.72          10.82         -60.88          13.58          138.1          110.3          113.7
    0.2672              -25.94         -1.148          37.19          61.25          4.716          10.81         -60.85          13.58          138.1          110.3          113.6
    0.3054              -25.94         -1.144          37.19          61.25          4.712          10.81          -60.8          13.59          138.1          110.2          113.6
    0.3436              -25.94          -1.14           37.2          61.25          4.707          10.81         -60.76           13.6          138.1          110.2          113.6
    0.3818              -25.93         -1.135           37.2          61.24          4.702          10.81         -60.71          13.61          138.1          110.2          113.6
    0.4199              -25.93          -1.13          37.21          61.24          4.696           10.8         -60.66          13.62          138.2          110.2          113.6
    0.4581              -25.93         -1.125          37.21          61.23           4.69           10.8          -60.6          13.63          138.2          110.1          113.6
    0.4963              -25.93         -1.119          37.22          61.23          4.684           10.8         -60.54          13.64          138.2          110.1          113.6
    0.5345              -25.92         -1.113          37.22          61.22          4.677           10.8         -60.48          13.65          138.2          110.1          113.5
    0.5726              -25.92         -1.106          37.23          61.22          4.669          10.79         -60.41          13.67          138.2          110.0          113.5
    0.6108              -25.92         -1.098          37.24          61.21          4.661          10.79         -60.33          13.68          138.2          110.0          113.5
     0.649              -25.91          -1.09          37.24           61.2          4.652          10.78         -60.25           13.7          138.2          110.0          113.5
    0.6872              -25.91         -1.081          37.25           61.2          4.642          10.78         -60.16          13.71          138.2          109.9          113.5
    0.7253               -25.9         -1.071          37.26          61.19          4.631          10.77         -60.06          13.73          138.3          109.9          113.4
    0.7635               -25.9         -1.061          37.27          61.18          4.619          10.77         -59.95          13.75          138.3          109.8          113.4
    0.8017              -25.89         -1.049          37.28          61.17          4.606          10.76         -59.82          13.78          138.3          109.8          113.4
    0.8399              -25.89         -1.036          37.29          61.16          4.592          10.76         -59.69           13.8          138.3          109.7          113.3
     0.878              -25.88         -1.021          37.31          61.15          4.576          10.75         -59.54          13.83          138.4          109.6          113.3
    0.9162              -25.88         -1.005          37.32          61.13          4.558          10.74         -59.38          13.86          138.4          109.6          113.2
    0.9544              -25.87        -0.9874          37.34          61.12          4.538          10.73         -59.19           13.9          138.4          109.5          113.2
    0.9926              -25.86        -0.9673          37.35           61.1          4.516          10.72         -58.99          13.94          138.5          109.4          113.1
     1.031              -25.85        -0.9447          37.37          61.08          4.491          10.71         -58.76          13.98          138.5          109.3          113.1
     1.069              -25.84        -0.9192           37.4          61.06          4.463           10.7         -58.49          14.03          138.5          109.1          113.0
     1.107              -25.82        -0.8903          37.42          61.03           4.43          10.68          -58.2          14.09          138.6          109.0          112.9
     1.145              -25.81        -0.8572          37.45          61.01          4.394          10.66         -57.86          14.15          138.7          108.8          112.8
     1.183              -25.79        -0.8193          37.49          60.97          4.352          10.64         -57.47          14.23          138.7          108.6          112.7
     1.222              -25.77        -0.7755          37.53          60.94          4.303          10.62         -57.02          14.31          138.8          108.4          112.6
      1.26              -25.75        -0.7246          37.57          60.89          4.247           10.6          -56.5          14.41          138.9          108.2          112.5
     1.298              -25.72        -0.6651          37.63          60.84          4.181          10.56         -55.89          14.53          139.0          107.9          112.3
     1.336              -25.69        -0.5949          37.69          60.78          4.103          10.53         -55.17          14.67          139.1          107.6          112.1
     1.374              -25.66        -0.5115          37.76          60.71          4.011          10.48         -54.31          14.83          139.3          107.1          111.9
     1.412              -25.61        -0.4115          37.85          60.63            3.9          10.43         -53.29          15.02          139.5          106.7          111.6
     1.451              -25.56        -0.2905          37.96          60.52          3.767          10.37         -52.05          15.26          139.7          106.1          111.2
     1.489              -25.49        -0.1428          38.09           60.4          3.603          10.29         -50.53          15.55          139.9          105.3          110.8
     1.527              -25.41        0.03958          38.26          60.24          3.401           10.2         -48.66          15.91          140.3          104.4          110.3
     1.565              -25.31          0.267          38.46          60.05          3.149          10.08         -46.33          16.35          140.7          103.3          109.7
     1.603              -25.18         0.5535          38.72           59.8          2.832          9.934         -43.39          16.91          141.2          101.9          108.9
     1.642              -25.02         0.9176          39.05          59.49          2.429          9.746         -39.65          17.63          141.9          100.2          107.9
      1.68              -24.81          1.384          39.47           59.1          1.913          9.505         -34.87          18.54          142.7          97.87          106.6
     1.718              -24.55          1.982           40.0          58.59          1.251          9.196         -28.73          19.71          143.8          94.95          104.9
     1.756              -24.21          2.746          40.69          57.94         0.4052          8.801          -20.9           21.2          145.2          91.21          102.8
     1.794              -23.78          3.707          41.55          57.12        -0.6583          8.305         -11.04          23.08          146.9          86.51          100.1
     1.832              -23.26          4.877           42.6          56.12         -1.954          7.699          0.971          25.38          149.1          80.79          96.83
     1.871              -22.65          6.235          43.82          54.96         -3.457          6.998          14.89          28.03          151.5          74.15          93.04
     1.909               -22.0          7.704          45.14          53.71         -5.083          6.238          29.97          30.91          154.2          66.97          88.94
     1.947              -21.35          9.173          46.46          52.46          -6.71          5.479          45.04          33.78          156.9          59.78          84.84
     1.985              -20.74          10.53          47.68           51.3         -8.212          4.777          58.96          36.44          159.3          53.14          81.06
     2.023              -20.22           11.7          48.73          50.31         -9.508          4.172          70.97          38.73          161.5          47.42          77.79
